<svg xmlns="http://www.w3.org/2000/svg" version="1.1" xmlns:xlink="http://www.w3.org/1999/xlink" width="214.12" height="55.74"><svg id="SvgjsSvg1022" data-name="Layer 2" xmlns="http://www.w3.org/2000/svg" viewBox="0 0 214.12 55.74">
  <defs>
    <style>
      .cls-1 {
        fill: #bf372e;
      }

      .cls-2 {
        fill: #2b101f;
      }
    </style>
  </defs>
  <g id="SvgjsG1021" data-name="Layer 1">
    <g>
      <path class="cls-2" d="M162.1,47.95c-.75,0-1.5,0-2.25,0-5.73,0-11.47,0-17.2,.01-4.85,0-9.71,.01-14.56,.01-23.42,0-46.84,0-70.25,0-7.79,0-15.58,0-23.37,0-1.16,0-2.33,.01-3.48,.08-.42,.02-.87,.14-1.25,.33-.67,.33-1.35,.56-2.11,.52-.63-.03-1.25,0-1.85,0-.05,.05-.08,.07-.09,.09-.2,.9-.2,.91-1.14,.92-.85,.01-1.7-.06-2.54,0-.82,.06-1.64,.21-2.45,.37-2.18,.44-4.36,.91-6.53,1.38-3.01,.64-6.01,1.3-9.02,1.94-.37,.08-.86,.27-1.01-.25-.15-.51,.41-.53,.72-.69,1.37-.7,2.74-1.39,4.12-2.08,2.03-1.02,4.06-2.04,6.1-3.06,.32-.16,.64-.31,.99-.48-.09-.13-.13-.22-.2-.27-1.57-1.13-2.63-2.68-3.57-4.32-1.34-2.33-1.71-4.86-1.48-7.5,.15-1.83,.71-3.56,1.53-5.2,.29-.58,.22-.83-.43-.93-1-.16-2.03-.2-3.04-.29-1.41-.14-2.81-.28-4.22-.41-.34-.03-.52-.21-.59-.51-.2-.89-.38-1.78-.58-2.66-.54-2.4-1.08-4.8-1.62-7.21-.24-1.1-.46-2.21-.71-3.31-.07-.3,.04-.48,.26-.69,1.95-1.89,3.89-3.79,5.82-5.7,.5-.5,.99-.78,1.77-.72,1.64,.12,3.29,.05,4.94,.11,3.42,.13,6.84,.19,10.24,.63,2.57,.33,5.15,.51,7.73,.76,.97,.1,1.94,.2,2.89,.37,.29,.05,.62,.27,.78,.51,.81,1.21,1.38,2.5,1.43,4.02,.04,1.49,.27,2.97,.41,4.45,.02,.18,.06,.36,.1,.6,.21-.06,.4-.08,.56-.15,.86-.33,1.75-.61,2.57-1.04,.82-.43,1.61-.96,2.33-1.55,.63-.51,1.13-1.18,1.71-1.75,.17-.17,.49-.35,.68-.3,1.38,.39,2.74,.18,4.11-.05,2.72-.45,5.46-.82,8.17-1.36,1.93-.38,3.82-1.01,5.73-1.5,2.52-.64,5.04-1.29,7.58-1.88,3.21-.74,6.42-1.49,9.66-2.09,4.36-.82,8.77-1.18,13.22-.8,1.5,.13,3,.32,4.49,.49,.85,.1,.9,.2,.98,1.07,.13,1.52,.29,3.03,.42,4.55,.05,.62,.06,1.25,.08,1.88,.01,.26,.03,.52,.05,.84,.15-.05,.26-.06,.35-.11,1.84-1.07,3.9-1.49,5.96-1.81,2.82-.43,5.67-.71,8.5-1.08,3.08-.4,6.16-.5,9.26-.31,3.05,.18,5.99,.79,8.81,2.01,1.21,.52,2.51,.82,3.71,1.36,2.95,1.32,5.85,2.73,8.79,4.09,.4,.19,.85,.33,1.29,.36,3.27,.22,6.55,.37,9.82,.63,2.99,.24,5.97,.59,8.95,.89,4.37,.45,8.63,1.44,12.89,2.47,1.92,.46,3.83,.98,5.74,1.49,.27,.07,.55,.26,.73,.47,1.15,1.33,2.28,2.68,3.39,4.04,.33,.41,.7,.68,1.24,.76,3.87,.54,7.58,1.61,11.04,3.45,1.83,.97,3.68,1.91,5.42,3.02,1.22,.77,2.34,1.74,3.42,2.72,1.08,.98,2.1,2.03,3.05,3.13,1.17,1.36,1.8,3.04,2.61,4.62,.14,.28,.27,.57,.37,.86,.15,.44,.03,.58-.44,.54-.87-.09-1.75-.21-2.62-.3-1.64-.17-3.28-.31-4.92-.5-2.43-.28-4.86-.67-7.29-.86-4.98-.39-9.96-.83-14.96-.46-.31,.02-.63,.02-.94,.04-1.11,.08-2.12,.31-3.06,1.02-1.95,1.47-4.21,2.18-6.62,2.5-4.19,.55-8.37,1.15-12.55,1.72-3.5,.48-7,.93-10.5,1.43-3.67,.52-7.33,1.08-11,1.6-1.75,.25-3.51,.45-5.27,.67-.43,.06-.87,.14-1.3,.18-.13,.01-.27-.07-.41-.11,.07-.16,.1-.38,.22-.46,.19-.12,.44-.13,.67-.19,1.54-.36,3.07-.72,4.61-1.08,2.27-.54,4.55-1.07,6.82-1.62,1.95-.47,3.9-.97,5.85-1.43,3.25-.77,6.51-1.51,9.76-2.27,.53-.12,1.07-.23,1.61-.36,.14-.03,.27-.11,.41-.17,0-.04-.02-.07-.03-.11ZM89.72,29.5s0,.01,0,.02c3.36,.07,6.72,.14,10.08,.21,8.97,.19,17.93,.38,26.9,.56,1,.02,2.01,.04,3.01,.07,.51,.02,.55,.09,.41,.56-.13,.45-.27,.9-.39,1.36-.22,.8-.21,.81-1.03,.89-2.72,.27-5.44,.54-8.16,.8-3.92,.37-7.85,.72-11.77,1.1-3.58,.35-7.15,.74-10.73,1.08-4.17,.4-8.35,.76-12.52,1.15-4.53,.42-9.07,.85-13.6,1.28-5.09,.48-10.19,.97-15.28,1.46-.33,.03-.66,.07-.98,.13-.09,.02-.15,.13-.23,.2,.07,.08,.13,.2,.21,.22,.23,.05,.46,.09,.7,.09,6.82-.04,13.63-.08,20.45-.13,6.17-.04,12.34-.08,18.52-.12,12.31-.08,24.63-.16,36.94-.21,.94,0,1.62-.29,2.3-.92,2.1-1.95,4.27-3.84,6.41-5.76,2.32-2.07,4.6-4.18,6.98-6.19,1-.85,1.81-1.99,3.19-2.34,.11-.03,.26-.27,.23-.35-.05-.12-.23-.26-.37-.27-.34-.04-.69-.03-1.03-.02-5.74,.24-11.48,.52-17.23,.7-3.73,.12-7.48,.05-11.21,.17-6.64,.2-13.28,.48-19.91,.73-5.92,.22-11.83,.45-17.75,.68-3.72,.15-7.44,.32-11.15,.46-2.23,.09-4.46,.11-6.69,.2-4.72,.18-9.45,.37-14.17,.57-.67,.03-1.35,.08-2.02,.16-.27,.03-.57,.18-.49,.5,.03,.12,.37,.24,.57,.25,3.77,.07,7.54,.12,11.31,.19,9.5,.17,19,.34,28.5,.5Zm27.77-10.27s0-.08,0-.11c5.01,0,10.01,0,15.02,0,.81,0,.96-.3,.59-1.08-.08-.16-.21-.32-.36-.43-.54-.4-1.07-.82-1.65-1.17-2.61-1.59-5.54-2.24-8.5-2.72-2.29-.37-4.61-.19-6.91-.09-2.36,.1-4.69,.44-6.93,1.19-2.43,.81-4.52,2.23-6.55,3.73-.06,.05-.13,.1-.16,.17-.06,.15-.17,.34-.12,.46,.05,.11,.26,.2,.41,.22,.29,.04,.59,.03,.89,.02,4.76-.07,9.51-.14,14.27-.2Zm66.56,17.58c-.06-2.25-.51-4.39-1.73-6.32-1.74-2.77-3.95-4.88-7.35-5.42-1.78-.29-3.54-.54-5.33-.15-1.1,.24-2.26,.21-3.28,.77-3.5,1.92-5.8,4.76-6.55,8.72-.65,3.44-.1,6.67,2.07,9.49,2.08,2.72,4.73,4.56,8.22,4.98,1.91,.23,3.81,.14,5.63-.49,2.05-.71,3.8-1.92,5.23-3.57,.97-1.12,1.8-2.34,2.36-3.7,.56-1.36,.7-2.83,.73-4.29Zm-148.39-.8c-.04-3.7-1.76-7.25-4.75-9.61-.61-.48-1.31-.85-2.01-1.19-.46-.22-.99-.28-1.48-.46-2.39-.88-4.81-.96-7.26-.26-.8,.23-1.59,.48-2.38,.74-.35,.12-.72,.25-1.02,.47-2.23,1.57-3.99,3.54-4.88,6.17-1.31,3.91-1.11,7.64,1.4,11.09,1.29,1.78,2.83,3.22,4.81,4.18,2.56,1.24,5.23,1.61,8,.93,2.57-.63,4.77-1.93,6.47-3.95,.92-1.09,1.8-2.22,2.29-3.63,.49-1.43,.79-2.87,.8-4.49Z"></path>
      <path class="cls-1" d="M134.46,0c4.11,.04,7.45,1.71,9.97,4.92,1.55,1.97,2.28,4.3,2.52,6.79,.04,.39,.02,.74-.48,.81-.52,.08-.81-.11-.89-.65-.19-1.32-.4-2.65-.97-3.87-1.7-3.62-4.5-5.85-8.47-6.49-1.87-.3-3.72-.13-5.5,.59-.38,.15-.77,.26-1.17,.37-.3,.08-.61,.15-.77-.22-.15-.35-.12-.69,.18-.94,.19-.15,.42-.27,.66-.36,1.58-.61,3.21-.97,4.92-.95Z"></path>
      <path class="cls-1" d="M133.56,3.4c3.16,.07,5.79,1.3,7.79,3.75,.99,1.22,1.78,2.59,2.03,4.18,.03,.21,.09,.46,.03,.65-.06,.19-.25,.45-.41,.48-.22,.03-.55-.06-.69-.23-.18-.21-.26-.53-.34-.81-.83-2.94-2.59-5.04-5.49-6.1-1.83-.67-3.68-.67-5.55-.14-.69,.2-1.04,.07-1.14-.42-.1-.46,.12-.76,.54-.85,1.07-.24,2.14-.43,3.21-.64,.01,.04,.02,.08,.03,.13Z"></path>
      <path class="cls-1" d="M130.93,8.16c.02-.48,.32-.73,.98-.79,1.13-.1,2.22,.07,3.27,.49,1.76,.7,3.14,1.87,4.14,3.47,.13,.21,.26,.46,.26,.69,0,.23-.11,.57-.28,.65-.2,.1-.55,.05-.76-.07-.21-.12-.36-.39-.49-.62-1.13-1.92-2.84-2.91-5.04-3.08-.48-.04-.97-.03-1.46-.06-.49-.03-.66-.23-.64-.69Z"></path>
      <path class="cls-2" d="M181.38,42.27c-.38,.55-.66,1.03-1.01,1.44-2.27,2.7-5.17,4.19-8.71,4.11-3.75-.09-6.68-1.79-8.94-4.8-1.63-2.17-2.15-4.57-1.95-7.17,.24-3.05,1.53-5.6,3.86-7.6,1.76-1.51,3.79-2.4,6.12-2.64,2.91-.3,5.51,.5,7.79,2.27,2,1.55,3.41,3.53,3.98,6.05,.1,.43,.22,.85,.31,1.28,.13,.57,.06,.76-.5,1-1.88,.83-3.76,1.64-5.65,2.47-1.64,.71-3.28,1.43-4.91,2.15-.14,.06-.31,.14-.39,.26-.11,.19-.26,.44-.2,.62,.05,.16,.32,.32,.52,.37,.25,.06,.53,.02,.8,.03,2.7,.01,5.4,.02,8.1,.04,.21,0,.42,.07,.78,.13Z"></path>
      <path class="cls-2" d="M23.38,25.2c.75,0,1.51-.07,2.26,.01,2.14,.24,3.86,1.37,5.38,2.79,1.66,1.55,2.68,3.5,3.23,5.7,.28,1.12,.24,1.18-.82,1.58-2.83,1.07-5.66,2.14-8.49,3.23-.24,.09-.5,.25-.63,.45-.34,.52,.06,1.1,.77,1.13,1.13,.05,2.26,.09,3.39,.12,1.54,.05,3.08,.09,4.61,.14,.58,.02,.65,.11,.37,.59-1.53,2.6-3.56,4.63-6.49,5.63-2.76,.95-5.49,.72-8.12-.36-1.41-.58-2.57-1.6-3.64-2.7-1.51-1.56-2.48-3.4-2.8-5.53-.51-3.42,.36-6.47,2.57-9.13,1.3-1.58,2.94-2.73,4.88-3.32,1.12-.34,2.34-.36,3.51-.52l.02,.2Z"></path>
    </g>
  </g>
</svg><style>@media (prefers-color-scheme: light) { :root { filter: none; } }
@media (prefers-color-scheme: dark) { :root { filter: none; } }
</style></svg>